<?xml version="1.0" standalone="no"?>
<!DOCTYPE svg PUBLIC "-//W3C//DTD SVG 20010904//EN"
 "http://www.w3.org/TR/2001/REC-SVG-20010904/DTD/svg10.dtd">
<svg version="1.0" xmlns="http://www.w3.org/2000/svg"
 width="2000.000000pt" height="2000.000000pt" viewBox="0 0 2000.000000 2000.000000"
 preserveAspectRatio="xMidYMid meet">
<metadata>
Created by potrace 1.16, written by Peter Selinger 2001-2019
</metadata>
<g transform="translate(0.000000,2000.000000) scale(0.100000,-0.100000)"
fill="#fac564" stroke="none">
<path d="M9030 16029 c-345 -39 -689 -175 -964 -381 -112 -84 -298 -276 -376
-387 -36 -51 -69 -99 -75 -107 -6 -8 -50 -21 -100 -29 -183 -31 -562 -145
-572 -171 -3 -9 1 -21 8 -28 10 -10 356 -127 478 -163 8 -2 -12 -20 -48 -41
-106 -62 -246 -225 -267 -309 -7 -27 11 -53 35 -53 10 0 69 29 132 65 63 36
116 65 119 65 3 0 5 -35 6 -78 1 -93 30 -159 100 -227 47 -46 132 -85 184 -85
23 0 31 -5 34 -22 2 -13 14 -75 25 -138 11 -63 37 -175 57 -249 35 -129 36
-134 18 -144 -11 -6 -47 -37 -80 -69 -110 -105 -146 -231 -106 -364 27 -87 54
-130 182 -284 268 -323 411 -460 494 -476 19 -3 101 -3 182 0 229 8 404 48
591 136 l83 39 47 -38 c58 -46 73 -63 103 -118 l23 -42 -41 -64 c-41 -62 -42
-65 -42 -151 0 -140 49 -334 90 -356 30 -16 38 -13 94 40 29 28 56 50 59 50 4
0 7 -20 7 -44 0 -95 56 -552 104 -846 8 -47 13 -86 13 -86 -1 -1 -94 -7 -207
-13 -401 -23 -646 -50 -805 -87 -33 -7 -63 -14 -67 -14 -4 0 -4 22 -1 50 7 58
-6 80 -47 80 -36 0 -308 -55 -385 -78 l-61 -19 -52 48 c-95 88 -223 132 -379
132 -56 0 -96 4 -102 11 -6 7 14 108 55 276 36 146 67 275 69 288 8 35 45 28
90 -19 44 -46 105 -78 148 -79 68 0 136 67 166 165 34 108 61 328 60 476 -1
123 -2 133 -24 155 -26 26 -94 47 -127 39 -20 -5 -27 2 -53 52 -27 51 -35 59
-75 71 -132 38 -256 -76 -335 -308 -13 -38 -27 -90 -30 -114 l-7 -45 -67 -22
c-87 -29 -159 -67 -165 -87 -18 -61 -28 -184 -36 -447 -5 -165 -9 -308 -9
-317 -1 -16 -13 -18 -103 -18 -256 0 -591 -68 -866 -175 -127 -50 -376 -170
-392 -190 -29 -35 53 -75 154 -75 71 0 82 -9 62 -48 -35 -67 -67 -207 -73
-312 -11 -230 75 -422 229 -504 29 -16 76 -51 104 -77 54 -50 125 -79 194 -79
95 0 210 -36 210 -66 0 -30 -45 -93 -70 -99 -67 -17 -351 -137 -508 -215 -524
-262 -919 -545 -1319 -946 -105 -106 -208 -201 -230 -212 -95 -49 -455 -343
-567 -464 -62 -66 -81 -95 -105 -158 -40 -104 -55 -194 -49 -309 6 -107 28
-175 80 -248 57 -78 135 -116 348 -169 42 -10 88 -29 105 -43 31 -25 161 -91
180 -91 6 0 16 -10 23 -21 13 -21 12 -21 -15 -14 -113 28 -300 32 -433 9 -182
-32 -383 -111 -533 -211 -219 -145 -390 -383 -390 -540 1 -97 43 -158 155
-226 l58 -35 -38 -24 c-65 -44 -154 -130 -210 -207 -122 -165 -204 -386 -247
-666 -11 -73 -14 -418 -4 -510 45 -441 212 -785 499 -1030 657 -561 1721 -618
2365 -126 133 101 275 261 358 403 111 189 166 362 176 552 l6 118 33 -45 c18
-25 82 -108 143 -184 61 -76 115 -150 121 -165 13 -37 34 -41 141 -28 51 6
108 13 127 15 289 36 745 98 985 134 201 30 575 90 625 99 28 5 94 4 173 -4
248 -24 432 -27 1534 -28 611 -1 1114 -3 1116 -6 3 -3 8 -30 12 -60 28 -235
113 -408 290 -586 157 -160 324 -264 561 -350 440 -159 1028 -175 1439 -38
451 149 780 511 898 989 39 155 51 265 52 455 0 209 -7 290 -39 431 -56 246
-170 434 -327 541 -27 18 -49 35 -49 38 0 3 165 61 366 130 201 68 368 129
372 134 11 19 31 191 32 273 1 284 -117 566 -333 799 -65 69 -74 83 -64 100 6
10 11 48 10 84 -1 111 -68 250 -153 318 -81 66 -191 106 -277 101 -34 -2 -47
2 -69 24 -43 43 -82 49 -349 53 -322 4 -532 18 -621 39 l-72 17 -4 76 c-3 42
-7 84 -9 92 -3 12 14 16 97 21 97 6 216 34 275 65 22 11 294 13 1575 14 852 0
1635 -2 1739 -4 197 -4 390 6 456 24 59 16 84 65 84 162 0 66 -3 80 -24 101
-13 15 -40 28 -62 32 l-39 7 20 25 c29 38 47 114 55 230 3 55 8 112 11 125 5
24 5 520 1 1396 l-2 532 25 0 c73 0 137 91 155 218 6 45 14 61 51 97 103 103
98 308 -10 402 -19 17 -48 34 -65 38 -23 5 -33 14 -42 43 -31 98 -95 189 -152
218 -17 10 -105 24 -216 36 -214 23 -264 24 -2086 16 -1267 -5 -1199 -2 -1282
-73 -59 -50 -79 -101 -88 -225 -8 -113 -8 -2742 1 -2900 3 -63 11 -108 23
-132 l18 -38 -55 0 -55 0 7 128 c12 211 9 2869 -3 2937 -11 63 -24 79 -90 111
-51 25 -133 15 -170 -20 -49 -47 -51 -98 -52 -1656 0 -829 -4 -1430 -10 -1451
-5 -20 -19 -51 -32 -70 -28 -41 -119 -90 -179 -95 -42 -4 -44 -2 -83 47 -97
125 -296 192 -606 206 l-145 6 37 75 c69 136 87 284 50 403 -14 43 -17 68 -10
80 5 10 6 54 3 101 l-6 83 49 17 c177 62 255 235 208 463 -24 116 -178 643
-240 825 -412 1194 -1089 2127 -1827 2515 l-103 55 61 0 c72 0 227 25 263 43
19 9 26 20 26 42 0 25 -7 34 -43 53 -24 13 -41 26 -39 29 16 16 242 -47 370
-103 43 -19 86 -34 96 -34 29 0 44 26 38 66 -8 50 -71 170 -118 226 -40 47
-48 68 -28 68 28 0 163 75 216 119 128 106 144 195 28 151 -14 -5 -68 -15
-119 -21 -142 -17 -271 4 -419 66 l-38 16 62 57 c246 227 381 466 445 787 27
135 25 395 -5 535 -85 400 -297 710 -646 945 -162 108 -427 218 -640 265 -210
46 -486 61 -685 39z m-30 -295 c70 -28 99 -100 74 -185 -12 -41 -29 -66 -77
-114 -102 -101 -231 -151 -413 -162 -130 -7 -182 1 -223 35 -30 24 -33 33 -33
78 0 123 105 231 296 305 147 57 298 74 376 43z m-1013 -1371 c186 -122 385
-193 622 -222 98 -13 121 -5 121 39 0 25 -9 37 -50 66 -27 20 -50 37 -50 39 0
1 28 -4 63 -11 105 -24 318 -29 425 -10 149 26 138 43 148 -212 4 -119 8 -241
9 -270 l0 -53 -65 -28 c-36 -15 -91 -40 -123 -55 -217 -101 -567 -162 -793
-137 -56 6 -148 22 -205 36 -57 14 -114 25 -126 25 -12 0 -24 8 -27 18 -13 42
-61 312 -106 592 -28 168 -52 315 -55 328 -5 19 7 13 61 -34 37 -31 105 -81
151 -111z m1312 -778 c1 -5 -25 -23 -56 -40 -32 -16 -81 -53 -110 -82 -110
-111 -121 -283 -33 -525 l29 -78 -69 -59 c-155 -134 -328 -243 -498 -315
l-109 -46 -59 16 c-128 33 -222 114 -418 362 -66 85 -136 172 -155 195 -86
108 -108 213 -64 308 19 42 118 163 149 182 7 4 38 -6 72 -23 102 -52 198 -71
375 -77 340 -12 719 73 897 200 31 22 36 23 42 8 4 -9 7 -20 7 -26z m65 -340
l27 -54 -42 -58 c-23 -32 -67 -89 -97 -126 -55 -68 -56 -68 -68 -45 -25 48
-54 183 -54 251 0 120 32 182 129 252 l45 33 17 -99 c10 -57 28 -122 43 -154z
m118 -116 c12 -6 59 -19 105 -28 l85 -17 -62 -77 c-100 -125 -247 -250 -403
-343 -69 -41 -265 -134 -283 -134 -3 0 30 26 73 58 187 139 343 320 431 499
14 29 28 53 30 53 2 0 13 -5 24 -11z m242 -307 l45 -29 -115 -114 c-63 -63
-142 -146 -176 -186 l-61 -72 -27 38 c-15 20 -42 49 -60 64 -18 15 -31 29 -29
31 2 1 24 17 49 34 25 17 108 83 185 146 77 64 141 116 142 116 1 0 22 -13 47
-28z m-15 -319 c6 -10 11 -15 11 -11 0 5 30 -8 68 -28 37 -20 66 -39 64 -42
-3 -6 -30 -38 -128 -151 -99 -114 -139 -156 -147 -153 -5 1 -6 -1 -3 -6 6 -9
-91 -109 -101 -104 -4 1 -8 -5 -9 -14 -1 -9 -15 -29 -30 -45 -27 -28 -46 -37
-42 -21 1 4 -4 20 -11 37 -7 16 -20 73 -29 127 -16 95 -16 98 3 112 11 8 24
12 29 9 5 -4 6 -1 3 4 -4 6 12 26 36 46 23 19 66 59 96 90 30 31 59 53 65 50
6 -3 8 -3 4 2 -9 10 80 115 98 115 7 0 18 -8 23 -17z m-1875 -198 c3 -8 8 -65
12 -127 10 -163 -5 -232 -77 -380 -58 -116 -60 -120 -87 -114 -38 10 -74 38
-97 77 -40 69 -15 271 50 399 28 56 84 113 135 141 43 22 56 23 64 4z m192
-140 c9 -22 -15 -330 -32 -410 -15 -76 -59 -172 -86 -189 -19 -12 -85 14 -94
37 -3 8 11 37 30 65 67 100 116 280 116 430 l0 82 30 0 c18 0 33 -6 36 -15z
m-566 -352 c0 -13 -17 -23 -60 -37 -33 -10 -61 -21 -61 -25 -3 -13 -7 -50 -19
-176 -8 -84 -11 -251 -9 -470 4 -324 3 -340 -14 -343 -14 -3 -18 1 -14 15 3
10 7 242 9 515 l3 497 75 19 c95 25 90 25 90 5z m35 -112 c3 -10 0 -31 -6 -47
-6 -16 -24 -78 -39 -139 l-28 -109 -7 89 c-3 50 -10 118 -14 152 -7 61 -7 62
18 66 57 9 70 7 76 -12z m8795 -666 c44 -23 39 -49 -15 -75 -55 -27 -120 -36
-360 -50 -104 -6 -217 -13 -250 -15 -33 -2 -245 -9 -470 -16 -545 -15 -1176 0
-1215 29 -35 26 -40 78 -8 92 14 6 419 17 1028 29 1334 24 1255 24 1290 6z
m-3007 -39 c17 -13 18 -87 20 -1549 l2 -1536 -29 -5 c-60 -12 -68 -9 -61 25
11 47 7 2955 -3 3016 -5 29 -7 55 -4 58 10 10 57 4 75 -9z m-6103 -118 c0 -35
3 -86 6 -114 l6 -51 -43 -25 c-62 -37 -150 -126 -176 -180 -16 -31 -23 -63
-23 -102 0 -51 -3 -60 -35 -93 -51 -52 -78 -115 -77 -179 0 -69 26 -121 95
-199 30 -33 61 -74 70 -91 25 -49 37 -113 26 -142 -23 -61 32 -132 109 -140
67 -6 108 17 134 74 17 39 18 50 7 82 -7 20 -24 48 -39 62 -18 17 -35 50 -48
97 l-20 71 35 -21 c27 -15 53 -20 112 -21 67 -1 84 3 142 31 74 37 153 111
171 161 7 18 15 31 18 29 3 -1 19 -9 35 -17 17 -8 31 -15 33 -16 11 -7 -173
-306 -242 -393 -45 -58 -93 -122 -106 -142 l-23 -35 -51 14 c-64 17 -158 10
-321 -23 -66 -14 -130 -27 -141 -31 -19 -5 -21 -2 -17 19 15 80 -98 164 -272
202 -160 35 -226 82 -242 172 -13 79 -7 359 11 493 9 69 31 201 49 295 l32
170 74 17 c175 40 501 85 644 87 l67 1 0 -62z m559 -17 c80 -25 249 -119 256
-142 11 -35 129 -20 348 44 l117 34 0 -27 c0 -26 -3 -28 -62 -34 -108 -12
-259 -46 -335 -76 -73 -28 -73 -28 -98 -8 -29 22 -178 93 -217 103 -16 4 -28
11 -28 15 0 4 -15 31 -34 59 -39 58 -36 60 53 32z m-1432 -63 c-2 -7 -13 -37
-23 -67 l-19 -53 -89 6 c-49 3 -117 6 -150 6 -80 1 -65 9 124 71 160 53 164
54 157 37z m3899 -47 c237 -55 392 -72 689 -76 l210 -3 5 -45 6 -44 -146 -19
c-183 -23 -376 -23 -495 0 -93 18 -394 91 -399 98 -8 8 -15 118 -8 118 5 0 66
-13 138 -29z m-596 -40 c0 -54 -2 -59 -24 -65 -14 -3 -170 -10 -348 -16 -258
-8 -544 -23 -613 -34 -5 0 -11 20 -13 47 l-3 47 139 0 c147 0 340 16 647 54
105 13 196 24 203 25 8 1 12 -17 12 -58z m-1866 -65 c37 -14 99 -47 137 -72
l69 -46 88 11 c48 7 167 28 266 47 136 27 181 33 186 24 4 -7 9 -145 9 -306
l2 -294 -33 6 c-137 25 -277 61 -415 105 -48 16 -63 25 -63 39 0 31 -31 39
-127 33 -79 -5 -100 -3 -157 17 l-66 24 7 35 c23 107 -13 186 -107 234 -64 33
-122 33 -186 0 -48 -24 -99 -97 -108 -153 -19 -118 80 -230 204 -230 28 0 61
5 73 11 12 5 -1 -12 -29 -39 -51 -48 -136 -90 -194 -95 -36 -3 -150 124 -196
218 -35 72 -78 220 -70 242 8 20 154 114 243 155 114 53 187 69 303 64 71 -3
112 -11 164 -30z m-1506 -61 c1 -1 -7 -44 -18 -96 -37 -181 -51 -434 -31 -576
6 -46 5 -51 -9 -43 -22 12 -64 73 -92 135 -34 74 -31 261 6 435 38 178 29 162
89 154 29 -4 53 -8 55 -9z m3967 -72 c158 -66 315 -94 525 -93 85 0 188 6 228
13 l74 14 9 -24 c15 -39 10 -125 -10 -168 -22 -49 -89 -111 -147 -136 -89 -40
-175 -44 -631 -31 -235 7 -581 20 -768 28 -187 9 -458 14 -603 12 l-262 -3 0
195 0 195 202 -3 c302 -4 1208 15 1248 27 42 11 46 11 135 -26z m5175 -190 c0
-16 -11 -142 -64 -763 -9 -96 -18 -196 -22 -222 -3 -27 -3 -48 1 -48 4 0 143
48 308 106 476 167 678 235 686 229 5 -2 15 -30 24 -62 99 -360 -8 -757 -274
-1023 -187 -187 -420 -294 -674 -308 -146 -9 -242 0 -357 33 -379 107 -661
405 -754 795 -22 92 -29 271 -14 371 55 379 322 711 678 845 124 46 210 62
345 63 105 1 117 -1 117 -16z m312 -29 c152 -55 255 -122 365 -237 62 -66 171
-222 162 -232 -7 -6 -339 -171 -479 -238 -298 -141 -340 -160 -344 -156 -6 6
181 789 209 877 6 16 2 16 87 -14z m-8668 -180 c19 -38 54 -118 76 -179 22
-60 56 -138 75 -173 40 -72 41 -79 18 -104 -38 -43 -101 -5 -88 54 20 97 -2
155 -106 271 -68 76 -109 141 -109 172 0 8 17 33 37 56 l37 41 12 -35 c7 -19
28 -65 48 -103z m910 -53 c45 -50 286 -127 485 -156 178 -26 201 -16 201 89 0
45 2 48 23 43 86 -22 650 -57 912 -57 94 0 193 -3 222 -6 l51 -7 9 -136 c12
-204 8 -333 -17 -477 -32 -190 -18 -266 67 -349 39 -38 138 -93 208 -115 22
-7 44 -15 48 -17 5 -3 -76 -27 -180 -53 -470 -118 -1114 -353 -1698 -620 -344
-158 -436 -209 -543 -305 -195 -175 -201 -392 -41 -1385 70 -437 185 -981 269
-1280 21 -74 41 -151 45 -170 14 -76 47 -157 76 -188 37 -40 32 -50 -50 -92
-75 -37 -136 -54 -332 -90 -207 -38 -255 -52 -317 -94 l-50 -33 -37 96 c-235
612 -380 1014 -540 1496 -62 187 -124 366 -138 397 -23 52 -24 60 -12 85 28
59 513 1375 840 2283 73 201 99 314 90 380 -8 55 -39 127 -67 157 l-21 22 60
59 c109 107 257 355 284 477 l12 54 56 4 c31 2 59 4 62 5 3 1 14 -7 23 -17z
m-642 -645 l26 -11 -74 -159 c-256 -545 -472 -1085 -844 -2111 -133 -365 -185
-487 -202 -470 -10 10 -1025 207 -1208 234 -113 17 -249 43 -304 56 -183 47
-321 127 -377 219 -27 43 -30 54 -24 100 10 75 60 220 106 306 98 181 265 385
525 640 528 518 1090 862 1801 1104 140 47 333 98 418 110 41 5 125 -4 157
-18z m102 -90 c39 -82 24 -139 -166 -656 -226 -613 -550 -1505 -645 -1773
l-94 -268 16 -84 c26 -142 50 -216 280 -870 103 -294 220 -612 335 -910 205
-529 253 -637 303 -677 21 -16 20 -16 -23 -23 -25 -4 -60 -7 -79 -8 l-35 -2
-41 105 c-373 943 -958 2469 -957 2495 0 12 124 352 217 595 103 270 245 621
515 1270 136 327 268 650 295 718 27 67 52 122 56 122 4 0 14 -15 23 -34z
m3186 -540 c80 -13 197 -30 261 -37 l116 -12 18 -56 c26 -86 103 -227 173
-320 34 -46 61 -84 60 -85 -23 -15 -143 -60 -211 -80 -93 -27 -442 -99 -777
-161 -107 -20 -355 -70 -550 -111 -718 -152 -987 -206 -1299 -260 l-34 -5 6
-177 c10 -296 49 -570 172 -1207 85 -439 137 -679 186 -854 44 -158 44 -154
-25 -165 -22 -4 -131 -27 -241 -51 -110 -24 -225 -46 -255 -50 l-55 -6 -62
198 c-34 109 -80 272 -102 363 -136 569 -280 1537 -270 1810 4 78 9 106 32
154 38 82 87 138 171 197 91 65 143 91 466 234 580 257 819 343 1690 610 173
53 317 99 320 102 3 2 19 2 35 -1 17 -2 95 -16 175 -30z m1435 -123 c19 -329
-24 -482 -180 -638 -191 -191 -432 -270 -900 -295 -678 -36 -941 -59 -1575
-136 -269 -32 -729 -93 -757 -99 -12 -3 -29 -12 -37 -21 -19 -18 -21 -75 -4
-92 9 -9 13 -50 14 -125 1 -64 10 -166 23 -238 20 -115 41 -208 162 -724 34
-144 199 -951 199 -974 0 -7 -130 -35 -135 -29 -5 6 -144 522 -189 703 -76
304 -108 494 -171 995 -20 157 -47 361 -61 454 -14 92 -23 170 -21 172 13 13
633 136 1282 254 636 116 1093 204 1219 236 428 108 645 276 702 544 l17 79
66 6 c103 10 211 26 271 40 30 7 58 14 61 14 4 1 10 -56 14 -126z m-461 39
c-26 -117 -50 -170 -112 -248 -36 -46 -138 -132 -146 -123 -31 38 -155 238
-190 306 l-46 92 250 0 250 0 -6 -27z m1791 -892 c126 -11 3649 -16 3729 -5
l59 8 -5 -52 c-3 -28 -7 -54 -10 -56 -2 -3 -81 -2 -174 3 -93 4 -965 5 -1939
2 -1716 -5 -1771 -4 -1787 14 -29 30 -21 96 11 96 9 -1 61 -5 116 -10z m-8971
-42 c-4 -7 -24 -40 -45 -73 -57 -91 -115 -220 -145 -320 -23 -76 -27 -110 -28
-215 0 -130 13 -199 56 -283 11 -22 17 -41 14 -44 -10 -10 -113 27 -158 57
-37 24 -55 47 -80 97 -29 60 -32 72 -30 156 1 51 11 142 24 204 l23 112 95 81
c52 44 136 116 185 160 50 44 91 80 93 80 2 0 0 -6 -4 -12z m8750 -100 c9 -12
16 -25 16 -29 0 -3 -98 -9 -218 -12 -240 -7 -343 -22 -430 -65 -54 -26 -114
-83 -134 -128 -11 -24 -12 -24 -150 -24 -76 0 -138 3 -138 6 0 14 95 126 133
157 50 41 126 80 187 97 29 8 131 13 285 14 224 1 244 3 293 24 30 12 70 34
90 47 l37 25 7 -44 c3 -25 13 -55 22 -68z m-3796 -257 c140 -21 366 -41 1032
-91 541 -40 689 -50 790 -51 72 0 80 -2 55 -11 -645 -223 -1081 -598 -1326
-1140 -169 -375 -236 -868 -173 -1272 15 -98 55 -270 73 -319 9 -23 7 -25 -42
-35 -29 -6 -155 -34 -282 -61 -126 -27 -230 -49 -231 -48 0 1 -8 32 -17 69
-22 94 -62 170 -119 227 -43 44 -48 53 -48 95 0 38 -6 52 -32 82 -18 19 -50
41 -72 48 l-38 13 44 11 c37 10 55 24 116 96 l72 84 -35 188 c-19 104 -35 195
-35 204 0 10 25 55 57 101 105 156 197 385 244 609 18 85 23 137 23 275 0 157
-2 177 -28 260 -34 112 -104 253 -192 387 -86 130 -175 280 -170 286 10 9 114
20 156 17 25 -3 105 -13 178 -24z m-417 -43 c19 -74 62 -158 159 -313 103
-165 160 -281 181 -365 20 -81 18 -314 -4 -420 -21 -96 -77 -271 -105 -327
l-20 -37 -12 74 c-7 41 -41 190 -77 330 -37 150 -84 374 -114 544 -43 252 -91
473 -114 528 -5 14 0 17 32 21 21 2 43 4 50 5 7 1 17 -17 24 -40z m-186 -75
c9 -119 37 -276 89 -517 48 -215 120 -606 113 -612 -2 -2 -16 58 -32 133 -78
388 -143 645 -205 816 -26 70 -29 86 -19 110 7 16 10 54 6 92 -4 62 -4 65 18
65 21 0 23 -5 30 -87z m3865 -29 c343 -34 849 -161 1202 -303 106 -42 304
-142 402 -203 333 -206 546 -466 610 -745 19 -83 21 -265 5 -358 l-10 -62
-342 -111 c-1295 -422 -2827 -841 -4012 -1098 -88 -19 -167 -37 -177 -40 -13
-4 -21 11 -41 73 -164 507 -149 1049 44 1536 258 654 839 1135 1548 1282 262
55 437 62 771 29z m-1120 -65 c-597 -226 -1046 -672 -1265 -1254 -181 -480
-193 -1005 -35 -1489 22 -66 38 -121 36 -123 -11 -11 -973 -202 -1446 -287
-814 -147 -2032 -329 -2051 -308 -4 4 -44 63 -89 132 -104 157 -287 412 -494
690 -369 497 -440 597 -969 1361 -173 251 -359 519 -414 595 l-98 138 -71 26
c-184 69 -275 188 -299 395 l-7 60 52 -49 c63 -59 180 -115 315 -149 116 -30
877 -192 1304 -277 161 -33 295 -61 297 -62 2 -2 45 -120 97 -263 324 -889
863 -2255 914 -2315 20 -23 78 -26 203 -10 41 6 158 15 260 20 270 14 499 48
1260 186 395 72 889 180 909 200 13 12 12 29 -3 131 -55 378 -70 710 -42 952
19 160 67 363 116 486 49 124 144 301 218 405 88 125 290 328 424 426 241 177
532 313 843 394 150 39 159 36 35 -11z m2511 -77 c22 -24 29 -42 29 -72 0 -22
-2 -40 -4 -40 -2 0 -34 14 -72 31 -38 18 -121 52 -184 76 l-115 43 158 -2 159
-3 29 -33z m-9381 -698 l75 -6 121 -181 c139 -207 332 -487 549 -792 372 -525
430 -609 413 -603 -8 3 -77 20 -154 38 -176 40 -229 55 -316 91 -87 36 -198
109 -231 152 -22 29 -36 35 -123 56 -408 98 -1320 393 -1476 478 -57 31 -93
73 -103 120 -28 135 191 385 455 518 251 127 434 156 790 129z m4374 -1181
c10 -38 29 -163 25 -168 -3 -2 -31 -8 -62 -13 -57 -9 -57 -9 -63 17 -3 14 -13
52 -21 85 -8 32 -11 61 -8 65 8 7 83 29 107 30 9 1 19 -7 22 -16z m-185 -109
c18 -48 30 -88 28 -90 -7 -7 -209 -33 -377 -48 -91 -9 -190 -18 -221 -21 l-55
-6 -11 63 c-6 35 -9 64 -8 65 1 2 91 19 201 38 163 30 404 78 411 84 0 0 15
-38 32 -85z m-3664 -227 c22 -14 72 -38 110 -53 39 -15 74 -30 78 -34 8 -7
-202 -410 -271 -520 -92 -148 -172 -186 -324 -155 -46 9 -85 18 -87 20 -2 2
15 33 37 68 87 137 214 414 303 659 l42 118 36 -39 c20 -21 54 -50 76 -64z
m3631 -44 c-9 -35 -34 -71 -70 -97 -21 -16 -46 -22 -112 -25 -93 -3 -89 -7
-98 72 l-6 47 48 1 c37 0 158 15 236 28 4 0 5 -11 2 -26z m4261 -3 c141 -63
240 -268 231 -475 -5 -104 -26 -160 -84 -225 -78 -86 -208 -130 -466 -154
-386 -37 -477 -39 -2058 -41 -1558 -2 -1565 -2 -1465 17 1302 245 2582 546
3645 857 74 22 140 40 145 40 6 0 29 -8 52 -19z m-9006 -16 c17 -8 87 -53 156
-99 69 -47 130 -82 136 -78 5 3 7 1 3 -5 -3 -6 -2 -13 3 -17 6 -3 -3 -35 -20
-75 -43 -101 -73 -237 -60 -267 12 -26 188 -118 246 -129 18 -3 37 -14 41 -24
13 -27 109 -99 171 -127 68 -31 163 -30 231 4 l42 21 73 -92 c41 -50 84 -105
97 -123 13 -18 27 -30 31 -28 4 3 5 -4 2 -16 -11 -41 -178 -131 -308 -165
-102 -27 -312 -25 -418 4 -281 77 -500 302 -578 597 -29 111 -29 289 0 398 21
80 96 237 113 237 5 0 23 -7 39 -16z m4927 -37 c7 -5 12 -33 12 -66 1 -48 5
-60 28 -83 45 -44 93 -134 117 -218 l22 -79 -51 -11 c-265 -54 -494 -89 -861
-131 -148 -16 -335 -42 -415 -56 -238 -41 -231 -41 -277 0 -22 20 -51 58 -66
85 l-27 49 43 16 c75 27 110 36 267 67 85 17 178 37 205 46 97 32 183 84 245
151 64 68 74 99 45 137 -20 26 -19 32 7 56 15 14 35 20 67 20 74 0 88 -7 95
-48 5 -30 15 -42 49 -64 63 -40 91 -48 161 -48 103 0 206 67 253 165 14 30 20
34 42 28 14 -3 32 -10 39 -16z m-807 -155 c-40 -33 -157 -97 -217 -118 -36
-13 -108 -29 -162 -35 -156 -17 -294 -40 -331 -55 -44 -18 -51 -18 -51 4 0 39
133 91 365 143 153 34 300 79 355 108 l35 19 11 -26 c10 -22 9 -29 -5 -40z
m-3445 27 c24 -6 44 -14 44 -17 0 -3 -22 -53 -49 -111 -72 -157 -92 -201 -115
-257 l-21 -52 -103 55 c-118 64 -115 53 -62 190 38 99 76 161 113 184 37 22
122 26 193 8z m8794 -697 c0 -17 -96 -115 -153 -156 -133 -94 -228 -126 -392
-133 -101 -5 -134 -2 -201 15 -79 20 -244 88 -244 101 0 8 179 44 323 65 59 9
134 25 167 36 55 19 224 49 385 69 96 12 115 12 115 3z"/>
<path d="M7985 14197 c-46 -22 -72 -54 -58 -75 8 -14 24 -16 84 -14 62 2 82
-1 123 -21 67 -33 112 -18 104 35 -8 56 -182 107 -253 75z"/>
<path d="M8044 13854 c-16 -24 -17 -36 -7 -128 10 -84 15 -104 34 -119 29 -23
57 -18 79 13 16 22 17 36 8 115 -10 100 -29 138 -71 143 -19 2 -30 -4 -43 -24z"/>
<path d="M14738 9531 c-28 -25 -33 -36 -33 -76 0 -40 5 -51 33 -76 61 -55 150
-30 171 48 28 102 -92 175 -171 104z"/>
<path d="M15623 9043 c-34 -6 -80 -57 -87 -97 -14 -72 47 -146 120 -146 44 0
96 38 113 84 33 88 -48 177 -146 159z"/>
<path d="M5957 8125 c-143 -50 -396 -235 -604 -440 -223 -221 -290 -361 -232
-483 43 -88 130 -127 319 -143 63 -5 177 -17 253 -25 199 -24 284 -10 355 59
67 64 108 186 132 387 6 52 19 142 30 200 37 207 35 323 -6 403 -36 69 -127
85 -247 42z m161 -81 c19 -6 22 -13 22 -63 0 -31 -5 -94 -11 -141 -10 -85 -74
-388 -83 -397 -2 -3 -166 1 -364 9 l-360 13 81 93 c188 214 496 449 632 483
40 9 56 10 83 3z"/>
<path d="M12335 6256 c-664 -135 -1051 -225 -1563 -363 -237 -64 -286 -80
-299 -99 -12 -20 -13 -27 -1 -51 7 -15 23 -29 34 -31 11 -2 173 35 360 82 641
160 1285 305 1764 396 118 22 225 43 237 45 27 6 46 39 38 65 -11 34 -35 50
-73 49 -20 0 -244 -42 -497 -93z"/>
<path d="M12820 5933 c-135 -24 -820 -163 -1020 -208 -472 -105 -1237 -303
-1267 -327 -20 -16 -15 -63 7 -83 20 -18 31 -15 428 83 639 159 1241 294 1752
392 118 23 221 46 228 52 17 14 15 49 -4 76 -15 22 -55 27 -124 15z"/>
<path d="M12470 5461 c-564 -115 -803 -168 -1175 -261 -290 -73 -629 -167
-657 -182 -35 -18 -13 -98 26 -98 7 0 184 43 392 94 639 160 1115 267 1669
375 308 61 335 69 335 107 0 6 -9 23 -21 38 -15 19 -29 26 -52 25 -18 0 -250
-44 -517 -98z"/>
<path d="M12710 4761 c-96 -31 -177 -102 -219 -190 -35 -76 -38 -211 -4 -283
68 -149 243 -228 406 -184 110 30 200 118 228 221 18 64 7 182 -23 245 -30 65
-104 141 -167 172 -49 24 -173 35 -221 19z m281 -229 c52 -82 48 -167 -13
-244 -40 -52 -100 -78 -176 -78 -71 0 -112 14 -161 56 -44 37 -71 96 -71 159
l0 51 48 12 c106 28 297 87 300 93 8 18 47 -9 73 -49z"/>
</g>
</svg>
